<svg width="120" height="33" viewBox="0 0 120 33" fill="none" xmlns="http://www.w3.org/2000/svg">
	<path d="M9.26364 32.5159L1.32746 28.7666C0.518612 28.3812 0 27.5676 0 26.6731V10.7579C0 9.39719 1.41786 8.49794 2.6454 9.08316L10.5816 12.8324C11.3904 13.2178 11.909 14.0314 11.909 14.9259V30.8411C11.909 32.2018 10.4912 33.1011 9.26364 32.5159Z" fill="#9578FF"/>
	<path d="M17.6943 28.0665L9.75812 24.3173C8.94928 23.9319 8.43066 23.1183 8.43066 22.2238V6.30385C8.43066 4.94308 9.84852 4.04384 11.0761 4.62906L19.0122 8.37829C19.8211 8.76368 20.3397 9.57728 20.3397 10.4718V26.387C20.3397 27.7477 18.9218 28.647 17.6943 28.0618V28.0665Z" fill="#4A6DFD"/>
	<path d="M26.1308 23.6183L18.1946 19.869C17.3858 19.4836 16.8672 18.67 16.8672 17.7756V1.8556C16.8672 0.494842 18.285 -0.404402 19.5126 0.18082L27.4488 3.93005C28.2576 4.31544 28.7762 5.12904 28.7762 6.02353V21.9387C28.7762 23.2995 27.3584 24.1987 26.1308 23.6135V23.6183Z" fill="#6C79F9"/>
	<path d="M86.2565 13.9261L84.2201 20.4777L82.179 13.9261C82.041 13.4883 81.6366 13.1934 81.1798 13.1934H80.528C80.0712 13.1934 79.6668 13.4931 79.5288 13.9261L77.4877 20.4777L75.4465 13.9261C75.3086 13.4883 74.9041 13.1934 74.4474 13.1934C73.7432 13.1934 73.2389 13.8785 73.4482 14.5494L76.3267 23.7987H78.6391L80.8468 16.6999L83.0544 23.7987H85.3668L88.2406 14.5494C88.4499 13.8785 87.9456 13.1934 87.2414 13.1934C86.7846 13.1934 86.3802 13.4931 86.2422 13.9261H86.2565Z" fill="#fff"/>
	<path d="M110.359 13.9023L107.557 20.8155L104.607 13.888C104.426 13.4693 104.017 13.1934 103.56 13.1934C102.747 13.1934 102.195 14.026 102.514 14.7777L106.348 23.7892L104.331 28.7565H106.805L112.486 14.7587C112.791 14.0117 112.239 13.1934 111.43 13.1934H111.411C110.949 13.1934 110.531 13.4741 110.355 13.9023H110.359Z" fill="#fff"/>
	<path d="M98.0412 14.298V14.6929C97.1277 13.5843 95.824 12.8896 94.3729 12.8896C91.6181 12.8896 89.3818 15.3971 89.3818 18.4849C89.3818 21.5728 91.6181 24.0802 94.3729 24.0802C95.824 24.0802 97.1277 23.3856 98.0412 22.277V23.79H100.239V14.298C100.239 13.689 99.7493 13.1989 99.1403 13.1989C98.5313 13.1989 98.0412 13.689 98.0412 14.298ZM94.8106 22.1914C93.0264 22.1914 91.5847 20.5308 91.5847 18.4849C91.5847 16.439 93.0312 14.7785 94.8106 14.7785C96.5901 14.7785 98.0365 16.439 98.0365 18.4849C98.0365 20.5308 96.5901 22.1914 94.8106 22.1914Z" fill="#fff"/>
	<path d="M71.0591 14.3977C70.3406 13.4699 69.2035 12.8799 67.6952 12.8799C66.187 12.8799 65.1545 13.4128 64.4313 14.2692C64.4313 13.6745 63.9508 13.1891 63.3513 13.1891H63.3037C62.7089 13.1891 62.2236 13.6697 62.2236 14.2692V23.7945H64.4265V17.3571C64.4884 15.9249 65.4257 14.7878 67.0862 14.7878C68.7467 14.7878 69.7506 16.0106 69.7506 17.5141V23.7945H71.9536V17.2476C71.9536 16.1581 71.6443 15.1637 71.0543 14.3977H71.0591Z" fill="#fff"/>
	<path d="M51.0908 22.5807C51.8092 23.5085 52.9464 24.0985 54.4546 24.0985C55.8963 24.0985 56.9953 23.5656 57.7185 22.7092V23.794H59.9215V14.2924C59.9215 13.6834 59.4266 13.1934 58.8224 13.1934C58.2134 13.1934 57.7233 13.6882 57.7233 14.2924V19.6213C57.6614 21.0534 56.7241 22.1906 55.0636 22.1906C53.3413 22.1906 52.3992 20.9678 52.3992 19.4643V14.2924C52.3992 13.6834 51.9044 13.1934 51.2954 13.1934C50.6864 13.1934 50.1963 13.6882 50.1963 14.2924V19.7307C50.1963 20.8203 50.5056 21.8147 51.0955 22.5807H51.0908Z" fill="#fff"/>
	<path d="M45.1196 18.123C46.1474 17.8471 46.9134 17.3523 47.4177 16.6338C47.9411 15.8868 48.2028 15.0589 48.2028 14.1454V14.1264C48.2028 13.3556 48.0172 12.6562 47.6556 12.0329C47.2893 11.4001 46.7421 10.8958 46.0046 10.5199C45.2671 10.144 44.3679 9.95371 43.3069 9.96323H39.3435C38.7012 9.96323 38.1826 10.4818 38.1826 11.1242V23.7992H40.533V18.3467H42.5266L42.6503 18.3371L45.9142 23.7992H48.4978L45.1101 18.1278L45.1196 18.123ZM40.3998 16.4768V12.2423C40.3998 12.0139 40.5854 11.8236 40.8185 11.8236H43.3116C44.1728 11.8236 44.8151 12.0282 45.2433 12.4326C45.6668 12.837 45.8809 13.3984 45.8809 14.1169C45.8809 14.8353 45.6668 15.4063 45.2338 15.8345C44.8009 16.2627 44.1633 16.472 43.3116 16.472H40.4046L40.3998 16.4768Z" fill="#fff"/>
	<path d="M10.5814 12.8269L8.43555 11.8135V22.219C8.43555 23.1135 8.95416 23.9319 9.763 24.3125L11.9088 25.3259V14.9251C11.9088 14.0307 11.3902 13.2123 10.5814 12.8317V12.8269Z" fill="#5133FF"/>
	<path d="M19.013 8.37867L16.8672 7.36523V17.7708C16.8672 18.6653 17.3858 19.4836 18.1946 19.8643L20.3405 20.8777V10.4769C20.3405 9.58242 19.8218 8.76406 19.013 8.38343V8.37867Z" fill="#2C44F4"/>
	<path d="M118.8 12.8602C118.724 12.8602 118.652 12.9078 118.619 12.9792L117.91 14.5588L117.206 12.9792C117.173 12.9078 117.101 12.8602 117.025 12.8602C116.916 12.8602 116.825 12.9506 116.825 13.0601V14.987H117.139V13.5025L117.801 14.987H118.019L118.681 13.5073V14.987H118.995V13.0553C118.995 12.9459 118.904 12.8555 118.795 12.8555L118.8 12.8602Z" fill="#fff"/>
	<path d="M116.302 12.8604H114.58C114.508 12.8604 114.446 12.9174 114.446 12.9936C114.446 13.0697 114.503 13.1268 114.58 13.1268H115.284V14.9871H115.598V13.1268H116.302C116.373 13.1268 116.435 13.0697 116.435 12.9936C116.435 12.9174 116.378 12.8604 116.302 12.8604Z" fill="#fff"/>
</svg>